<svg width="309" height="85" viewBox="0 0 309 85" fill="none" xmlns="http://www.w3.org/2000/svg">
<path d="M263.017 43.5669H290.141V61.0897H263.017V84.0133H244.894V0H290.141V17.4028H263.017V43.5669ZM308.264 43.5669H290.141V17.4028H308.264V43.5669ZM308.264 84.0133H290.141V61.0897H308.264V84.0133Z" fill="white"/>
<path d="M170.351 84.0133V0H214.158V17.4028H231.561V84.0133H170.351ZM213.438 17.4028H188.474V66.6106H213.438V17.4028Z" fill="white"/>
<path d="M89.7369 66.6106H71.6141V0H89.7369V66.6106ZM125.743 84.0133H89.7369V66.6106H125.743V84.0133Z" fill="white"/>
<path d="M0 0H64.5702V17.4028H41.4066V84.0133H23.2837V17.4028H0V0Z" fill="white"/>
<rect x="136.089" y="12.0627" width="18.2732" height="18.2732" fill="#C197FF"/>
<rect x="136.089" y="47.467" width="18.2732" height="18.2732" fill="#C197FF"/>
<rect x="145.226" y="65.7401" width="9.13659" height="18.2732" fill="#C197FF"/>
</svg>
